<svg width="250" height="61" viewBox="0 0 250 61" fill="none" xmlns="http://www.w3.org/2000/svg">
<g clip-path="url(#clip0_1207_2)">
<path d="M30.7625 0L0 30.5062L30.7625 61.0124L61.525 30.5062L30.7625 0ZM16.9375 30.5062H44.5875L30.7625 44.216L16.9375 30.5062Z" fill="#020204"/>
<path d="M110.928 19.4961L104.128 42.0442H97.6406L94.0406 29.7723L90.3031 42.0442H83.8156L77.0156 19.4961H83.3531L87.2656 33.1439L91.3156 19.4961H97.0281L100.978 33.2679L105.028 19.4961H110.916H110.928Z" fill="#020204"/>
<path d="M131.855 32.7618H117.967C118.53 35.055 120.192 36.3814 122.655 36.3814C125.117 36.3814 125.755 35.7616 127.055 34.4228L130.58 38.749C128.742 41.1662 126.067 42.4058 122.442 42.4058C115.642 42.4058 111.242 37.4598 111.242 30.7165C111.242 23.9731 115.717 19.1016 121.742 19.1016C127.767 19.1016 131.967 23.3409 131.967 30.7909C131.88 32.7618 131.88 32.7618 131.88 32.7618H131.855ZM117.867 28.6092H125.692C125.342 26.2416 123.855 24.7417 121.78 24.7417C119.705 24.7417 118.255 26.2416 117.867 28.6092Z" fill="#020204"/>
<path d="M156.45 30.7286C156.45 37.9306 152.262 42.4179 147.075 42.4179C141.887 42.4179 142.7 41.5874 141.438 39.8024V42.046H135.062V11.168H141.762V21.4441C143.062 19.8575 144.862 19.1137 147.087 19.1137C152.262 19.1137 156.462 23.5638 156.462 30.7286H156.45ZM149.688 30.7286C149.688 27.3198 147.925 25.3984 145.675 25.3984C143.425 25.3984 141.663 27.3074 141.663 30.7286C141.663 34.1499 143.425 36.1332 145.675 36.1332C147.925 36.1332 149.688 34.1747 149.688 30.7286Z" fill="#020204"/>
<path d="M180.092 19.4994V37.9321C180.092 46.4604 176.005 50.5015 168.892 50.5015C164.88 50.3279 162.505 49.5222 159.417 47.5512L161.855 42.0227C163.442 43.5226 166.042 44.4399 168.305 44.4399C171.905 44.4399 173.417 42.5309 173.417 38.9857V38.242C172.117 40.027 170.18 40.9071 167.742 40.9071C162.667 40.9071 158.367 36.6677 158.367 30.0111C158.367 23.3545 162.667 19.1523 167.742 19.1523C172.817 19.1523 172.43 20.1564 173.73 22.2761V19.5242H180.105L180.092 19.4994ZM173.467 29.9739C173.467 27.222 171.705 25.3999 169.305 25.3999C166.905 25.3999 165.117 27.2344 165.117 29.9739C165.117 32.7134 166.917 34.5976 169.305 34.5976C171.692 34.5976 173.467 32.7258 173.467 29.9739Z" fill="#020204"/>
<path d="M184.391 11.168H191.091V42.046H184.391V11.168Z" fill="#020204"/>
<path d="M194.227 30.7282C194.227 23.9477 198.777 19.1133 205.014 19.1133C211.252 19.1133 215.802 23.9353 215.802 30.7282C215.802 37.5211 211.327 42.4175 205.014 42.4175C198.702 42.4175 194.227 37.5459 194.227 30.7282ZM209.027 30.7282C209.027 27.3193 207.302 25.398 205.014 25.398C202.727 25.398 201.002 27.3069 201.002 30.7282C201.002 34.1495 202.764 36.1328 205.014 36.1328C207.264 36.1328 209.027 34.1742 209.027 30.7282Z" fill="#020204"/>
<path d="M250.006 19.4961L243.206 42.0442H236.719L233.119 29.7723L229.381 42.0442H222.894L216.094 19.4961H222.431L226.344 33.1439L230.394 19.4961H236.106L240.056 33.2679L244.106 19.4961H249.994H250.006Z" fill="#020204"/>
</g>
<defs>
<clipPath id="clip0_1207_2">
<rect width="250" height="61" fill="white"/>
</clipPath>
</defs>
</svg>
